<?xml version="1.0" encoding="UTF-8"?>
<!DOCTYPE svg PUBLIC "-//W3C//DTD SVG 1.1//EN" "http://www.w3.org/Graphics/SVG/1.1/DTD/svg11.dtd">
<svg version="1.1" xmlns="http://www.w3.org/2000/svg" xmlns:xlink="http://www.w3.org/1999/xlink" x="0" y="0" width="944" height="704" viewBox="0, 0, 944, 704">
  <defs>
    <radialGradient id="Gradient_1" gradientUnits="userSpaceOnUse" cx="412.222" cy="-296.764" r="240.278" gradientTransform="matrix(0.18, 0.984, -0.984, 0.18, 0, 0)">
      <stop offset="0.21" stop-color="#404040"/>
      <stop offset="0.695" stop-color="#717171"/>
      <stop offset="0.818" stop-color="#838383"/>
      <stop offset="1" stop-color="#989898"/>
    </radialGradient>
  </defs>
  <g id="Layer_1">
    <g>
      <path d="M366.685,626.038 C215.614,626.038 93.147,503.571 93.147,352.5 C93.147,201.429 215.614,78.962 366.685,78.962 C517.756,78.962 640.223,201.429 640.223,352.5 C640.223,503.571 517.756,626.038 366.685,626.038 z" fill="#D6D6D6"/>
      <path d="M366.685,626.038 C215.614,626.038 93.147,503.571 93.147,352.5 C93.147,201.429 215.614,78.962 366.685,78.962 C517.756,78.962 640.223,201.429 640.223,352.5 C640.223,503.571 517.756,626.038 366.685,626.038 z" fill-opacity="0" stroke="#000000" stroke-width="9" stroke-opacity="0.412" stroke-linecap="round" stroke-linejoin="round"/>
    </g>
    <path d="M129.84,395.296 C105.928,264.766 192.359,139.567 322.889,115.655 C453.419,91.743 578.618,178.174 602.53,308.704 C626.442,439.234 540.011,564.433 409.481,588.345 C278.951,612.257 153.752,525.826 129.84,395.296 z" fill="url(#Gradient_1)"/>
    <g>
      <g>
        <path d="M797.729,408.788 C766.69,408.788 741.441,383.539 741.441,352.5 C741.441,321.461 766.69,296.212 797.729,296.212 C828.768,296.212 854.018,321.461 854.018,352.5 C854.018,383.539 828.768,408.788 797.729,408.788 L797.729,408.788 z" fill="#9A9A9A"/>
        <path d="M797.729,408.788 C766.69,408.788 741.441,383.539 741.441,352.5 C741.441,321.461 766.69,296.212 797.729,296.212 C828.768,296.212 854.018,321.461 854.018,352.5 C854.018,383.539 828.768,408.788 797.729,408.788 L797.729,408.788 z" fill-opacity="0" stroke="#FFFFFF" stroke-width="8"/>
      </g>
    </g>
    <g>
      <path d="M430.227,202.469 L411.014,208.873 L366.185,164.044 L321.356,208.873 L302.143,202.469 L366.185,138.427 z" fill="#FFFFFF"/>
    </g>
    <g>
      <path d="M430.227,509.615 L411.014,503.21 L366.185,548.04 L321.356,503.21 L302.143,509.615 L366.185,573.657 z" fill="#FFFFFF"/>
    </g>
    <g>
      <path d="M215.668,416.042 L222.072,396.829 L177.243,352 L222.072,307.171 L215.668,287.958 L151.626,352 z" fill="#FFFFFF"/>
    </g>
    <g>
      <path d="M522.077,416.042 L515.673,396.829 L560.502,352 L515.673,307.171 L522.077,287.958 L586.119,352 z" fill="#FFFFFF"/>
    </g>
  </g>
</svg>
